<svg version="1.1" id="Capa_1" xmlns="http://www.w3.org/2000/svg" xmlns:xlink="http://www.w3.org/1999/xlink" x="0px" y="0px" viewBox="0 0 512 512" style="enable-background:new 0 0 512 512;" xml:space="preserve" width="300" height="300" xmlns:svgjs="http://svgjs.dev/svgjs"><g width="100%" height="100%" transform="matrix(1,0,0,1,0,0)"><g>
	<g>
		<g>
			<path style="stroke-linecap: round; stroke-linejoin: round; stroke-miterlimit: 10;" d="&#10;&#9;&#9;&#9;&#9;M439.663,317.935L439.663,317.935c3.997-26.824,6.004-53.908,6.004-81.028v-56.371c0-15.253,12.365-27.617,27.753-27.617h0&#10;&#9;&#9;&#9;&#9;c15.238,0,27.588,12.357,27.58,27.594l-0.071,148.359c-0.018,34.508-13.734,67.598-38.135,91.999l-41.448,41.448&#10;&#9;&#9;&#9;&#9;c-10.259,10.259-16.022,24.173-16.022,38.682v0h-123.24c-0.032-24.603-0.072-50.654-0.084-54.902&#10;&#9;&#9;&#9;&#9;c-0.067-23.048,9.062-45.172,25.436-61.547l0,0c10.041-10.041,22.631-17.102,36.381-20.646&#10;&#9;&#9;&#9;&#9;c13.065-3.368,25.095-10.201,34.636-19.742c7.128-7.128,15.809-15.81,23.55-23.554c11.137-11.14,29.194-11.138,40.431,0.099h0&#10;&#9;&#9;&#9;&#9;c11.087,11.087,11.086,29.063-0.003,40.149l-44.933,44.918" fill="none" fill-opacity="1" stroke="#000000" stroke-opacity="1" data-original-stroke-color="#000000ff" stroke-width="12" data-original-stroke-width="22"/>
		</g>
		<g>
			<path style="stroke-linecap: round; stroke-linejoin: round; stroke-miterlimit: 10;" d="&#10;&#9;&#9;&#9;&#9;M72.337,317.935L72.337,317.935c-3.997-26.824-6.004-53.908-6.004-81.028l0-56.371c0-15.253-12.365-27.617-27.753-27.617h0&#10;&#9;&#9;&#9;&#9;c-15.238,0-27.588,12.357-27.58,27.594l0.071,148.359c0.018,34.508,13.734,67.598,38.135,91.999l41.448,41.448&#10;&#9;&#9;&#9;&#9;c10.259,10.259,16.022,24.173,16.022,38.682v0h123.24c0.032-24.603,0.072-50.654,0.084-54.902&#10;&#9;&#9;&#9;&#9;c0.067-23.048-9.062-45.172-25.436-61.547h0c-10.041-10.041-22.631-17.102-36.381-20.646&#10;&#9;&#9;&#9;&#9;c-13.065-3.368-25.095-10.201-34.636-19.742c-7.128-7.128-15.809-15.81-23.55-23.554c-11.137-11.14-29.194-11.138-40.431,0.099h0&#10;&#9;&#9;&#9;&#9;c-11.087,11.087-11.086,29.063,0.003,40.149l44.933,44.918" fill="none" fill-opacity="1" stroke="#000000" stroke-opacity="1" data-original-stroke-color="#000000ff" stroke-width="12" data-original-stroke-width="22"/>
		</g>
	</g>
	<g>
		<path style="stroke-linejoin: round; stroke-miterlimit: 10;" d="M241.679,149.773v-37.65&#10;&#9;&#9;&#9;c0-18.616-15.091-33.708-33.708-33.708l0,0c-18.616,0-33.708,15.091-33.708,33.708v37.65" fill="none" fill-opacity="1" stroke="#d1994a" stroke-opacity="1" data-original-stroke-color="#33ccccff" stroke-width="12" data-original-stroke-width="22"/>
		
			<circle style="stroke-linejoin: round; stroke-miterlimit: 10;" cx="207.972" cy="44.708" r="33.708" fill="none" fill-opacity="1" stroke="#d1994a" stroke-opacity="1" data-original-stroke-color="#33ccccff" stroke-width="12" data-original-stroke-width="22"/>
		<path style="stroke-linejoin: round; stroke-miterlimit: 10;" d="M278.38,179.887h8.484&#10;&#9;&#9;&#9;c12.15,0,22-9.85,22-22s-9.85-22-22-22h-45.185" fill="none" fill-opacity="1" stroke="#d1994a" stroke-opacity="1" data-original-stroke-color="#33ccccff" stroke-width="12" data-original-stroke-width="22"/>
		<path style="stroke-linejoin: round; stroke-miterlimit: 10;" d="M291.787,245.106&#10;&#9;&#9;&#9;l19.631,52.408c4.928,13.155,19.7,19.697,32.753,14.504c12.684-5.046,19.001-19.312,14.213-32.096l-31.074-82.959&#10;&#9;&#9;&#9;c-3.866-10.322-13.731-17.161-24.754-17.161h-24.237" fill="none" fill-opacity="1" stroke="#d1994a" stroke-opacity="1" data-original-stroke-color="#33ccccff" stroke-width="12" data-original-stroke-width="22"/>
		
			<circle style="stroke-linejoin: round; stroke-miterlimit: 10;" cx="207.972" cy="228.33" r="85.472" fill="none" fill-opacity="1" stroke="#d1994a" stroke-opacity="1" data-original-stroke-color="#33ccccff" stroke-width="12" data-original-stroke-width="22"/>
		
			<circle style="stroke-linejoin: round; stroke-miterlimit: 10;" cx="207.972" cy="228.33" r="22" fill="none" fill-opacity="1" stroke="#d1994a" stroke-opacity="1" data-original-stroke-color="#33ccccff" stroke-width="12" data-original-stroke-width="22"/>
	</g>
</g><g>
</g><g>
</g><g>
</g><g>
</g><g>
</g><g>
</g><g>
</g><g>
</g><g>
</g><g>
</g><g>
</g><g>
</g><g>
</g><g>
</g><g>
</g></g></svg>