<svg version="1.1" id="Layer_1" xmlns="http://www.w3.org/2000/svg" xmlns:xlink="http://www.w3.org/1999/xlink" x="0px" y="0px" viewBox="0 0 512 512" style="enable-background:new 0 0 512 512;" xml:space="preserve" width="300" height="300" xmlns:svgjs="http://svgjs.dev/svgjs"><g width="100%" height="100%" transform="matrix(1,0,0,1,0,0)"><g>
	<g>
		
			<line style="stroke-linejoin: round; stroke-miterlimit: 10;" x1="11" y1="378" x2="131" y2="378" fill="none" fill-opacity="1" stroke="#d1994a" stroke-opacity="1" data-original-stroke-color="#33ccccff" stroke-width="12" data-original-stroke-width="22"/>
	</g>
	<g>
		<g>
			<path style="stroke-linejoin: round; stroke-miterlimit: 10;" d="M393.425,313.082&#10;&#9;&#9;&#9;&#9;c-6.196-12.587-18.181-21.937-32.811-24.325l-33.18-5.417" fill="none" fill-opacity="1" stroke="#000000" stroke-opacity="1" data-original-stroke-color="#000000ff" stroke-width="12" data-original-stroke-width="22"/>
			<path style="stroke-linejoin: round; stroke-miterlimit: 10;" d="M184.566,283.34&#10;&#9;&#9;&#9;&#9;l-33.18,5.417C129.83,292.276,114,310.9,114,332.742V334" fill="none" fill-opacity="1" stroke="#000000" stroke-opacity="1" data-original-stroke-color="#000000ff" stroke-width="12" data-original-stroke-width="22"/>
		</g>
		<path style="stroke-linejoin: round; stroke-miterlimit: 10;" d="M190.812,151.606v-14.241&#10;&#9;&#9;&#9;c0-36.086,29.254-65.34,65.34-65.34h0c36.086,0,65.34,29.254,65.34,65.34v14.241H190.812z" fill="none" fill-opacity="1" stroke="#000000" stroke-opacity="1" data-original-stroke-color="#000000ff" stroke-width="12" data-original-stroke-width="22"/>
		
			<line style="stroke-linejoin: round; stroke-miterlimit: 10;" x1="285.275" y1="266.82" x2="285.275" y2="242.22" fill="none" fill-opacity="1" stroke="#000000" stroke-opacity="1" data-original-stroke-color="#000000ff" stroke-width="12" data-original-stroke-width="22"/>
		
			<line style="stroke-linejoin: round; stroke-miterlimit: 10;" x1="226.726" y1="242.22" x2="226.726" y2="266.82" fill="none" fill-opacity="1" stroke="#000000" stroke-opacity="1" data-original-stroke-color="#000000ff" stroke-width="12" data-original-stroke-width="22"/>
		<path style="stroke-linejoin: round; stroke-miterlimit: 10;" d="M190.812,151.606v29.188&#10;&#9;&#9;&#9;c0,36.086,29.254,65.34,65.34,65.34h0c36.086,0,65.34-29.254,65.34-65.34v-29.188H190.812z" fill="none" fill-opacity="1" stroke="#000000" stroke-opacity="1" data-original-stroke-color="#000000ff" stroke-width="12" data-original-stroke-width="22"/>
		<path style="stroke-linecap: round; stroke-linejoin: round; stroke-miterlimit: 10;" d="&#10;&#9;&#9;&#9;M237.257,151.606c15.68,0,28.392-12.711,28.392-28.392" fill="none" fill-opacity="1" stroke="#000000" stroke-opacity="1" data-original-stroke-color="#000000ff" stroke-width="12" data-original-stroke-width="22"/>
		<polygon style="stroke-linejoin: round; stroke-miterlimit: 10;" points="256,299.095 &#10;&#9;&#9;&#9;215.367,339.728 184.54,283.291 226.726,266.585 &#9;&#9;" fill="none" fill-opacity="1" stroke="#000000" stroke-opacity="1" data-original-stroke-color="#000000ff" stroke-width="12" data-original-stroke-width="22"/>
		<polygon style="stroke-linejoin: round; stroke-miterlimit: 10;" points="256,299.095 &#10;&#9;&#9;&#9;296.633,339.728 327.46,283.291 285.275,266.585 &#9;&#9;" fill="none" fill-opacity="1" stroke="#000000" stroke-opacity="1" data-original-stroke-color="#000000ff" stroke-width="12" data-original-stroke-width="22"/>
		<polyline style="stroke-linejoin: round; stroke-miterlimit: 10;" points="131,422 &#10;&#9;&#9;&#9;131,334 11,334 11,422 &#9;&#9;" fill="none" fill-opacity="1" stroke="#d1994a" stroke-opacity="1" data-original-stroke-color="#33ccccff" stroke-width="12" data-original-stroke-width="22"/>
		<path style="stroke-linejoin: round; stroke-miterlimit: 10;" d="M501,422v-84.848&#10;&#9;&#9;&#9;c0-13.294-10.777-24.07-24.07-24.07h-99.103c-13.294,0-24.07,10.777-24.07,24.07V422" fill="none" fill-opacity="1" stroke="#d1994a" stroke-opacity="1" data-original-stroke-color="#33ccccff" stroke-width="12" data-original-stroke-width="22"/>
		
			<circle style="stroke-linejoin: round; stroke-miterlimit: 10;" cx="81.958" cy="81.958" r="70.958" fill="none" fill-opacity="1" stroke="#000000" stroke-opacity="1" data-original-stroke-color="#000000ff" stroke-width="12" data-original-stroke-width="22"/>
		
			<polyline style="stroke-linecap: round; stroke-linejoin: round; stroke-miterlimit: 10;" points="&#10;&#9;&#9;&#9;81.958,55 81.958,81.958 67.764,96.152 &#9;&#9;" fill="none" fill-opacity="1" stroke="#000000" stroke-opacity="1" data-original-stroke-color="#000000ff" stroke-width="12" data-original-stroke-width="22"/>
		
			<rect x="11" y="422" style="stroke-linejoin: round; stroke-miterlimit: 10;" width="490" height="79" fill="none" fill-opacity="1" stroke="#000000" stroke-opacity="1" data-original-stroke-color="#000000ff" stroke-width="12" data-original-stroke-width="22"/>
		
			<line style="stroke-linecap: round; stroke-linejoin: round; stroke-miterlimit: 10;" x1="427.378" y1="367.541" x2="427.378" y2="367.541" fill="none" fill-opacity="1" stroke="#000000" stroke-opacity="1" data-original-stroke-color="#000000ff" stroke-width="12" data-original-stroke-width="22"/>
		<path style="stroke-linejoin: round; stroke-miterlimit: 10;" d="M292.989,83.401&#10;&#9;&#9;&#9;c5.675-7.78,8.954-17.418,8.728-27.837c-0.52-23.935-19.897-43.639-43.822-44.531c-25.965-0.968-47.32,19.794-47.32,45.543&#10;&#9;&#9;&#9;c0,10.03,3.248,19.298,8.739,26.825" fill="none" fill-opacity="1" stroke="#000000" stroke-opacity="1" data-original-stroke-color="#000000ff" stroke-width="12" data-original-stroke-width="22"/>
	</g>
</g><g>
</g><g>
</g><g>
</g><g>
</g><g>
</g><g>
</g><g>
</g><g>
</g><g>
</g><g>
</g><g>
</g><g>
</g><g>
</g><g>
</g><g>
</g></g></svg>