<svg version="1.1" id="Capa_1" xmlns="http://www.w3.org/2000/svg" xmlns:xlink="http://www.w3.org/1999/xlink" x="0px" y="0px" viewBox="0 0 512 512" style="enable-background:new 0 0 512 512;" xml:space="preserve" width="300" height="300" xmlns:svgjs="http://svgjs.dev/svgjs"><g width="100%" height="100%" transform="matrix(1,0,0,1,0,0)"><g>
	<g>
		<g>
			<g>
				<path style="stroke-linecap: round; stroke-linejoin: round; stroke-miterlimit: 10;" d="&#10;&#9;&#9;&#9;&#9;&#9;M439.187,209.918c-4.491-17.971-11.571-35.075-21.114-50.999l10.576-33.73l-41.992-42.039l-33.688,10.588&#10;&#9;&#9;&#9;&#9;&#9;c-15.903-9.554-32.988-16.644-50.941-21.139l-16.337-31.32h-59.381l-16.337,31.32c-17.953,4.496-35.038,11.585-50.939,21.139&#10;&#9;&#9;&#9;&#9;&#9;l-33.691-10.588l-41.99,42.039l10.573,33.73c-9.541,15.92-16.621,33.025-21.112,51L41.53,226.275v59.452l31.282,16.355&#10;&#9;&#9;&#9;&#9;&#9;c4.491,17.975,11.573,35.079,21.112,50.999l-10.573,33.731l41.99,42.039l33.691-10.588&#10;&#9;&#9;&#9;&#9;&#9;c15.901,9.552,32.984,16.641,50.939,21.138l16.337,31.32h59.381l16.337-31.32c17.95-4.495,35.038-11.585,50.941-21.138&#10;&#9;&#9;&#9;&#9;&#9;l33.688,10.588l41.992-42.039l-10.576-33.731c9.541-15.924,16.623-33.028,21.114-50.999l31.283-16.355v-59.453L439.187,209.918z&#10;&#9;&#9;&#9;&#9;&#9;" fill="none" fill-opacity="1" stroke="#000000" stroke-opacity="1" data-original-stroke-color="#000000ff" stroke-width="12" data-original-stroke-width="22"/>
			</g>
			
				<line style="stroke-linecap: round; stroke-linejoin: round; stroke-miterlimit: 10;" x1="438.922" y1="72.377" x2="409.101" y2="102.312" fill="none" fill-opacity="1" stroke="#000000" stroke-opacity="1" data-original-stroke-color="#000000ff" stroke-width="12" data-original-stroke-width="22"/>
			
				<ellipse style="stroke-linecap: round; stroke-linejoin: round; stroke-miterlimit: 10;" cx="465.682" cy="45.514" rx="34.382" ry="34.514" fill="none" fill-opacity="1" stroke="#000000" stroke-opacity="1" data-original-stroke-color="#000000ff" stroke-width="12" data-original-stroke-width="22"/>
			
				<line style="stroke-linecap: round; stroke-linejoin: round; stroke-miterlimit: 10;" x1="73.078" y1="439.623" x2="102.899" y2="409.688" fill="none" fill-opacity="1" stroke="#000000" stroke-opacity="1" data-original-stroke-color="#000000ff" stroke-width="12" data-original-stroke-width="22"/>
			
				<ellipse style="stroke-linecap: round; stroke-linejoin: round; stroke-miterlimit: 10;" cx="46.318" cy="466.486" rx="34.382" ry="34.514" fill="none" fill-opacity="1" stroke="#000000" stroke-opacity="1" data-original-stroke-color="#000000ff" stroke-width="12" data-original-stroke-width="22"/>
			
				<line style="stroke-linecap: round; stroke-linejoin: round; stroke-miterlimit: 10;" x1="438.922" y1="439.623" x2="409.101" y2="409.688" fill="none" fill-opacity="1" stroke="#000000" stroke-opacity="1" data-original-stroke-color="#000000ff" stroke-width="12" data-original-stroke-width="22"/>
			
				<ellipse style="stroke-linecap: round; stroke-linejoin: round; stroke-miterlimit: 10;" cx="465.682" cy="466.486" rx="34.382" ry="34.514" fill="none" fill-opacity="1" stroke="#000000" stroke-opacity="1" data-original-stroke-color="#000000ff" stroke-width="12" data-original-stroke-width="22"/>
			
				<line style="stroke-linecap: round; stroke-linejoin: round; stroke-miterlimit: 10;" x1="73.078" y1="72.377" x2="102.899" y2="102.312" fill="none" fill-opacity="1" stroke="#000000" stroke-opacity="1" data-original-stroke-color="#000000ff" stroke-width="12" data-original-stroke-width="22"/>
			
				<ellipse style="stroke-linecap: round; stroke-linejoin: round; stroke-miterlimit: 10;" cx="46.318" cy="45.514" rx="34.382" ry="34.514" fill="none" fill-opacity="1" stroke="#000000" stroke-opacity="1" data-original-stroke-color="#000000ff" stroke-width="12" data-original-stroke-width="22"/>
		</g>
		
			<ellipse style="stroke-linecap: round; stroke-linejoin: round; stroke-miterlimit: 10;" cx="256" cy="256" rx="131.418" ry="131.442" fill="none" fill-opacity="1" stroke="#000000" stroke-opacity="1" data-original-stroke-color="#000000ff" stroke-width="12" data-original-stroke-width="22"/>
	</g>
	<g>
		<g>
			<path style="stroke-linecap: round; stroke-linejoin: round; stroke-miterlimit: 10;" d="&#10;&#9;&#9;&#9;&#9;M175.914,291.758l26.751-70.508c0.547-1.342,2.439-1.344,2.988-0.003l26.508,70.511" fill="none" fill-opacity="1" stroke="#d1994a" stroke-opacity="1" data-original-stroke-color="#33ccccff" stroke-width="12" data-original-stroke-width="22"/>
			
				<line style="stroke-linecap: round; stroke-linejoin: round; stroke-miterlimit: 10;" x1="184.257" y1="281.632" x2="223.953" y2="281.632" fill="none" fill-opacity="1" stroke="#d1994a" stroke-opacity="1" data-original-stroke-color="#33ccccff" stroke-width="12" data-original-stroke-width="22"/>
		</g>
		<g>
			
				<line style="stroke-linecap: round; stroke-linejoin: round; stroke-miterlimit: 10;" x1="336.086" y1="220.242" x2="336.086" y2="291.758" fill="none" fill-opacity="1" stroke="#d1994a" stroke-opacity="1" data-original-stroke-color="#33ccccff" stroke-width="12" data-original-stroke-width="22"/>
		</g>
		<g>
			
				<line style="stroke-linecap: round; stroke-linejoin: round; stroke-miterlimit: 10;" x1="263.535" y1="256" x2="263.535" y2="291.758" fill="none" fill-opacity="1" stroke="#d1994a" stroke-opacity="1" data-original-stroke-color="#33ccccff" stroke-width="12" data-original-stroke-width="22"/>
			<path style="stroke-linecap: round; stroke-linejoin: round; stroke-miterlimit: 10;" d="&#10;&#9;&#9;&#9;&#9;M303.871,240.424c0,11.146-9.395,20.182-20.498,20.182c-5.507,0-19.837,0.089-19.837,0.089v-40.452c0,0,13.33,0,19.837,0&#10;&#9;&#9;&#9;&#9;C294.476,220.242,303.871,229.278,303.871,240.424z" fill="none" fill-opacity="1" stroke="#d1994a" stroke-opacity="1" data-original-stroke-color="#33ccccff" stroke-width="12" data-original-stroke-width="22"/>
		</g>
	</g>
</g><g>
</g><g>
</g><g>
</g><g>
</g><g>
</g><g>
</g><g>
</g><g>
</g><g>
</g><g>
</g><g>
</g><g>
</g><g>
</g><g>
</g><g>
</g></g></svg>