<svg version="1.1" id="Capa_1" xmlns="http://www.w3.org/2000/svg" xmlns:xlink="http://www.w3.org/1999/xlink" x="0px" y="0px" viewBox="0 0 512 512" style="enable-background:new 0 0 512 512;" xml:space="preserve" width="300" height="300" xmlns:svgjs="http://svgjs.dev/svgjs"><g width="100%" height="100%" transform="matrix(1,0,0,1,0,0)"><g>
	<path style="stroke-linecap: round; stroke-linejoin: round; stroke-miterlimit: 10;" d="&#10;&#9;&#9;M384.758,76.274c7.743-7.489,18.29-12.096,29.913-12.096c23.766,0,43.033,19.266,43.033,43.033&#10;&#9;&#9;c0,18.893-12.176,34.943-29.109,40.73" fill="none" fill-opacity="1" stroke="#000000" stroke-opacity="1" data-original-stroke-color="#000000ff" stroke-width="12" data-original-stroke-width="22"/>
	<path style="stroke-linecap: round; stroke-linejoin: round; stroke-miterlimit: 10;" d="&#10;&#9;&#9;M446.506,189.865L380.231,75.073c-6.077-10.526-21.271-10.526-27.348,0l-66.275,114.792" fill="none" fill-opacity="1" stroke="#000000" stroke-opacity="1" data-original-stroke-color="#000000ff" stroke-width="12" data-original-stroke-width="22"/>
	<path style="stroke-linecap: round; stroke-linejoin: round; stroke-miterlimit: 10;" d="&#10;&#9;&#9;M446.506,189.865L380.231,75.073c-6.077-10.526-21.271-10.526-27.348,0l-66.275,114.792" fill="none" fill-opacity="1" stroke="#000000" stroke-opacity="1" data-original-stroke-color="#000000ff" stroke-width="12" data-original-stroke-width="22"/>
	<path style="stroke-linecap: round; stroke-linejoin: round; stroke-miterlimit: 10;" d="&#10;&#9;&#9;M406.163,328.195l-36.587-21.124c-12.42-7.171-27.946,1.793-27.946,16.134v42.247c0,14.342,15.525,23.305,27.946,16.134&#10;&#9;&#9;l36.587-21.124C418.583,353.293,418.583,335.366,406.163,328.195l-36.587-21.124c-12.42-7.171-27.946,1.793-27.946,16.134v42.247&#10;&#9;&#9;c0,14.342,15.525,23.305,27.946,16.134l36.587-21.124C418.583,353.293,418.583,335.366,406.163,328.195z" fill="none" fill-opacity="1" stroke="#d1994a" stroke-opacity="1" data-original-stroke-color="#33ccccff" stroke-width="12" data-original-stroke-width="22"/>
	<path style="stroke-linecap: round; stroke-linejoin: round; stroke-miterlimit: 10;" d="&#10;&#9;&#9;M481,496.051H276.109c-11.046,0-20-8.954-20-20V271.159c0-11.046,8.954-20,20-20H481c11.046,0,20,8.954,20,20v204.891&#10;&#9;&#9;C501,487.096,492.046,496.051,481,496.051z" fill="none" fill-opacity="1" stroke="#d1994a" stroke-opacity="1" data-original-stroke-color="#33ccccff" stroke-width="12" data-original-stroke-width="22"/>
	
		<line style="stroke-linecap: round; stroke-linejoin: round; stroke-miterlimit: 10;" x1="303.551" y1="440.443" x2="453.557" y2="440.443" fill="none" fill-opacity="1" stroke="#d1994a" stroke-opacity="1" data-original-stroke-color="#33ccccff" stroke-width="12" data-original-stroke-width="22"/>
	
		<line style="stroke-linecap: round; stroke-linejoin: round; stroke-miterlimit: 10;" x1="330.852" y1="431.131" x2="330.852" y2="449.756" fill="none" fill-opacity="1" stroke="#d1994a" stroke-opacity="1" data-original-stroke-color="#33ccccff" stroke-width="12" data-original-stroke-width="22"/>
	<path style="stroke-linecap: round; stroke-linejoin: round; stroke-miterlimit: 10;" d="&#10;&#9;&#9;M38.807,303.551h135.461c15.225,0,27.568,12.342,27.568,27.568v110.479c0,15.225-12.342,27.568-27.568,27.568h-22.582&#10;&#9;&#9;c-6.063,0-10.979,4.915-10.979,10.979v4.906c0,9.454-11.153,14.487-18.242,8.233L98.24,471.912&#10;&#9;&#9;c-2.006-1.77-4.589-2.746-7.263-2.746h-52.17c-15.225,0-27.568-12.342-27.568-27.568V331.119&#10;&#9;&#9;C11.239,315.894,23.582,303.551,38.807,303.551z" fill="none" fill-opacity="1" stroke="#000000" stroke-opacity="1" data-original-stroke-color="#000000ff" stroke-width="12" data-original-stroke-width="22"/>
	<path style="stroke-linecap: round; stroke-linejoin: round; stroke-miterlimit: 10;" d="&#10;&#9;&#9;M481,193.458H273.271c-11.046,0-20-8.954-20-20V38.856c0-11.046,8.954-20,20-20H481c11.046,0,20,8.954,20,20v134.602&#10;&#9;&#9;C501,184.504,492.046,193.458,481,193.458z" fill="none" fill-opacity="1" stroke="#000000" stroke-opacity="1" data-original-stroke-color="#000000ff" stroke-width="12" data-original-stroke-width="22"/>
	<path style="stroke-linecap: round; stroke-linejoin: round; stroke-miterlimit: 10;" d="&#10;&#9;&#9;M176.185,249.377H31c-11.046,0-20-8.954-20-20V35.949c0-11.046,8.954-20,20-20h145.185c11.046,0,20,8.954,20,20v193.427&#10;&#9;&#9;C196.185,240.422,187.231,249.377,176.185,249.377z" fill="none" fill-opacity="1" stroke="#000000" stroke-opacity="1" data-original-stroke-color="#000000ff" stroke-width="12" data-original-stroke-width="22"/>
	
		<line style="stroke-linecap: round; stroke-linejoin: round; stroke-miterlimit: 10;" x1="61.674" y1="106.531" x2="145.511" y2="106.531" fill="none" fill-opacity="1" stroke="#000000" stroke-opacity="1" data-original-stroke-color="#000000ff" stroke-width="12" data-original-stroke-width="22"/>
	
		<line style="stroke-linecap: round; stroke-linejoin: round; stroke-miterlimit: 10;" x1="61.674" y1="152.211" x2="145.511" y2="152.211" fill="none" fill-opacity="1" stroke="#000000" stroke-opacity="1" data-original-stroke-color="#000000ff" stroke-width="12" data-original-stroke-width="22"/>
	
		<line style="stroke-linecap: round; stroke-linejoin: round; stroke-miterlimit: 10;" x1="61.674" y1="197.891" x2="145.511" y2="197.891" fill="none" fill-opacity="1" stroke="#000000" stroke-opacity="1" data-original-stroke-color="#000000ff" stroke-width="12" data-original-stroke-width="22"/>
	
		<line style="stroke-linecap: round; stroke-linejoin: round; stroke-miterlimit: 10;" x1="82.006" y1="60.851" x2="125.18" y2="60.851" fill="none" fill-opacity="1" stroke="#000000" stroke-opacity="1" data-original-stroke-color="#000000ff" stroke-width="12" data-original-stroke-width="22"/>
	
		<line style="stroke-linecap: round; stroke-linejoin: round; stroke-miterlimit: 10;" x1="58.612" y1="383.115" x2="58.612" y2="383.115" fill="none" fill-opacity="1" stroke="#000000" stroke-opacity="1" data-original-stroke-color="#000000ff" stroke-width="12" data-original-stroke-width="22"/>
	
		<line style="stroke-linecap: round; stroke-linejoin: round; stroke-miterlimit: 10;" x1="106.537" y1="383.115" x2="106.537" y2="383.115" fill="none" fill-opacity="1" stroke="#000000" stroke-opacity="1" data-original-stroke-color="#000000ff" stroke-width="12" data-original-stroke-width="22"/>
	
		<line style="stroke-linecap: round; stroke-linejoin: round; stroke-miterlimit: 10;" x1="154.462" y1="383.115" x2="154.462" y2="383.115" fill="none" fill-opacity="1" stroke="#000000" stroke-opacity="1" data-original-stroke-color="#000000ff" stroke-width="12" data-original-stroke-width="22"/>
</g><g>
</g><g>
</g><g>
</g><g>
</g><g>
</g><g>
</g><g>
</g><g>
</g><g>
</g><g>
</g><g>
</g><g>
</g><g>
</g><g>
</g><g>
</g></g></svg>