<svg version="1.1" id="Capa_1" xmlns="http://www.w3.org/2000/svg" xmlns:xlink="http://www.w3.org/1999/xlink" x="0px" y="0px" viewBox="0 0 512 512" style="enable-background:new 0 0 512 512;" xml:space="preserve" width="300" height="300" xmlns:svgjs="http://svgjs.dev/svgjs"><g width="100%" height="100%" transform="matrix(1,0,0,1,0,0)"><g>
	<g>
		<g>
			<path style="stroke-linejoin: round; stroke-miterlimit: 10;" d="M80.782,232.002&#10;&#9;&#9;&#9;&#9;l-3.717,1.321c-22.292,7.921-40.049,25.127-48.668,47.158l-11.663,29.812c-3.706,9.473-5.608,19.555-5.608,29.727V501h97.289&#10;&#9;&#9;&#9;&#9;v-74.148c15.656-11.299,25.654-27.377,32.358-42.716l39.397-44.067c9.674-10.821,8.344-27.53-2.919-36.685l0,0&#10;&#9;&#9;&#9;&#9;c-10.071-8.185-24.689-7.475-33.919,1.649l-39.022,38.575H90.968" fill="none" fill-opacity="1" stroke="#000000" stroke-opacity="1" data-original-stroke-color="#000000ff" stroke-width="12" data-original-stroke-width="22"/>
			<path style="stroke-linejoin: round; stroke-miterlimit: 10;" d="M431.218,279.998&#10;&#9;&#9;&#9;&#9;l3.717-1.321c22.292-7.921,40.049-25.127,48.668-47.158l11.663-29.812c3.706-9.473,5.608-19.555,5.608-29.727V11h-97.289v74.148&#10;&#9;&#9;&#9;&#9;c-15.656,11.299-25.654,27.377-32.358,42.716l-39.397,44.067c-9.674,10.821-8.344,27.53,2.919,36.685l0,0&#10;&#9;&#9;&#9;&#9;c10.071,8.185,24.689,7.475,33.919-1.649l39.022-38.575h23.529" fill="none" fill-opacity="1" stroke="#000000" stroke-opacity="1" data-original-stroke-color="#000000ff" stroke-width="12" data-original-stroke-width="22"/>
		</g>
		<g>
			<g>
				<path style="stroke-linejoin: round; stroke-miterlimit: 10;" d="M256,343.609h57.214&#10;&#9;&#9;&#9;&#9;&#9;c-3.643,11.102-1.059,23.801,7.768,32.627c12.497,12.497,32.758,12.497,45.255,0c8.827-8.827,11.41-21.525,7.768-32.627h57.214&#10;&#9;&#9;&#9;&#9;&#9;V168.391h-23.529" fill="none" fill-opacity="1" stroke="#000000" stroke-opacity="1" data-original-stroke-color="#000000ff" stroke-width="12" data-original-stroke-width="22"/>
				
					<line style="stroke-linejoin: round; stroke-miterlimit: 10;" x1="334.994" y1="168.391" x2="256" y2="168.391" fill="none" fill-opacity="1" stroke="#000000" stroke-opacity="1" data-original-stroke-color="#000000ff" stroke-width="12" data-original-stroke-width="22"/>
			</g>
			<path style="stroke-linejoin: round; stroke-miterlimit: 10;" d="M177.006,343.609H256&#10;&#9;&#9;&#9;&#9;v-57.214c11.102,3.643,23.801,1.059,32.627-7.768c12.497-12.497,12.497-32.758,0-45.255c-8.827-8.827-21.525-11.41-32.627-7.768&#10;&#9;&#9;&#9;&#9;v-57.214h-57.214c3.643-11.102,1.059-23.801-7.768-32.628c-12.497-12.497-32.758-12.497-45.255,0&#10;&#9;&#9;&#9;&#9;c-8.827,8.827-11.41,21.526-7.768,32.628H80.782v175.218h23.529" fill="none" fill-opacity="1" stroke="#000000" stroke-opacity="1" data-original-stroke-color="#000000ff" stroke-width="12" data-original-stroke-width="22"/>
		</g>
	</g>
	<g>
		<g>
			
				<line style="stroke-linecap: round; stroke-linejoin: round; stroke-miterlimit: 10;" x1="193.158" y1="77.731" x2="166.066" y2="50.639" fill="none" fill-opacity="1" stroke="#d1994a" stroke-opacity="1" data-original-stroke-color="#33ccccff" stroke-width="12" data-original-stroke-width="22"/>
			
				<line style="stroke-linecap: round; stroke-linejoin: round; stroke-miterlimit: 10;" x1="319.096" y1="77.731" x2="346.188" y2="50.639" fill="none" fill-opacity="1" stroke="#d1994a" stroke-opacity="1" data-original-stroke-color="#33ccccff" stroke-width="12" data-original-stroke-width="22"/>
			
				<line style="stroke-linecap: round; stroke-linejoin: round; stroke-miterlimit: 10;" x1="256.127" y1="77.731" x2="256.127" y2="22.051" fill="none" fill-opacity="1" stroke="#d1994a" stroke-opacity="1" data-original-stroke-color="#33ccccff" stroke-width="12" data-original-stroke-width="22"/>
		</g>
		<g>
			
				<line style="stroke-linecap: round; stroke-linejoin: round; stroke-miterlimit: 10;" x1="193.158" y1="434.523" x2="166.066" y2="461.615" fill="none" fill-opacity="1" stroke="#d1994a" stroke-opacity="1" data-original-stroke-color="#33ccccff" stroke-width="12" data-original-stroke-width="22"/>
			
				<line style="stroke-linecap: round; stroke-linejoin: round; stroke-miterlimit: 10;" x1="319.096" y1="434.523" x2="346.188" y2="461.615" fill="none" fill-opacity="1" stroke="#d1994a" stroke-opacity="1" data-original-stroke-color="#33ccccff" stroke-width="12" data-original-stroke-width="22"/>
			
				<line style="stroke-linecap: round; stroke-linejoin: round; stroke-miterlimit: 10;" x1="256.127" y1="434.523" x2="256.127" y2="490.203" fill="none" fill-opacity="1" stroke="#d1994a" stroke-opacity="1" data-original-stroke-color="#33ccccff" stroke-width="12" data-original-stroke-width="22"/>
		</g>
	</g>
</g><g>
</g><g>
</g><g>
</g><g>
</g><g>
</g><g>
</g><g>
</g><g>
</g><g>
</g><g>
</g><g>
</g><g>
</g><g>
</g><g>
</g><g>
</g></g></svg>