<svg version="1.1" id="Capa_1" xmlns="http://www.w3.org/2000/svg" xmlns:xlink="http://www.w3.org/1999/xlink" x="0px" y="0px" viewBox="0 0 512 512" style="enable-background:new 0 0 512 512;" xml:space="preserve" width="300" height="300" xmlns:svgjs="http://svgjs.dev/svgjs"><g width="100%" height="100%" transform="matrix(1,0,0,1,0,0)"><g>
	
		<polygon style="stroke-linecap: round; stroke-linejoin: round; stroke-miterlimit: 10;" points="&#10;&#9;&#9;76.333,403 11,403 109,501 207,403 141.667,403 141.667,109 76.333,109 &#9;" fill="none" fill-opacity="1" stroke="#d1994a" stroke-opacity="1" data-original-stroke-color="#33ccccff" stroke-width="12" data-original-stroke-width="22"/>
	<polyline style="stroke-linejoin: round; stroke-miterlimit: 10;" points="337.667,225.492 &#10;&#9;&#9;337.667,109 403,109 305,11 207,109 272.333,109 272.333,256 &#9;" fill="none" fill-opacity="1" stroke="#d1994a" stroke-opacity="1" data-original-stroke-color="#33ccccff" stroke-width="12" data-original-stroke-width="22"/>
	<path style="stroke-linecap: round; stroke-linejoin: round; stroke-miterlimit: 10;" d="&#10;&#9;&#9;M329.5,417.928c0,0,14.637,9.572,32.667,9.572c18.03,0,32.667-14.637,32.667-32.667c0-17.258-16.333-27.095-32.667-32.667&#10;&#9;&#9;c-16.333-5.571-32.667-15.409-32.667-32.667c0-18.03,14.637-32.667,32.667-32.667c9.014,0,17.181,3.659,23.095,9.572" fill="none" fill-opacity="1" stroke="#d1994a" stroke-opacity="1" data-original-stroke-color="#33ccccff" stroke-width="12" data-original-stroke-width="22"/>
	
		<line style="stroke-linecap: round; stroke-linejoin: round; stroke-miterlimit: 10;" x1="362.167" y1="430.08" x2="362.167" y2="443.833" fill="none" fill-opacity="1" stroke="#d1994a" stroke-opacity="1" data-original-stroke-color="#33ccccff" stroke-width="12" data-original-stroke-width="22"/>
	
		<line style="stroke-linecap: round; stroke-linejoin: round; stroke-miterlimit: 10;" x1="362.167" y1="280.5" x2="362.167" y2="294.117" fill="none" fill-opacity="1" stroke="#d1994a" stroke-opacity="1" data-original-stroke-color="#33ccccff" stroke-width="12" data-original-stroke-width="22"/>
	
		<ellipse transform="matrix(0.7071 -0.7071 0.7071 0.7071 -150.0143 362.1667)" style="stroke-linecap: round; stroke-linejoin: round; stroke-miterlimit: 10;" cx="362.167" cy="362.167" rx="138.833" ry="138.833" fill="none" fill-opacity="1" stroke="#000000" stroke-opacity="1" data-original-stroke-color="#000000ff" stroke-width="12" data-original-stroke-width="22"/>
</g><g>
</g><g>
</g><g>
</g><g>
</g><g>
</g><g>
</g><g>
</g><g>
</g><g>
</g><g>
</g><g>
</g><g>
</g><g>
</g><g>
</g><g>
</g></g></svg>