<svg version="1.1" id="Capa_1" xmlns="http://www.w3.org/2000/svg" xmlns:xlink="http://www.w3.org/1999/xlink" x="0px" y="0px" viewBox="0 0 512 512" style="enable-background:new 0 0 512 512;" xml:space="preserve" width="300" height="300" xmlns:svgjs="http://svgjs.dev/svgjs"><g width="100%" height="100%" transform="matrix(1,0,0,1,0,0)"><g>
	<g>
		<path style="stroke-linejoin: round; stroke-miterlimit: 10;" d="M13.133,238.945h123.709&#10;&#9;&#9;&#9;c36.291,0,65.71-29.419,65.71-65.71v0c0-20.559-9.597-39.681-25.518-51.987" fill="none" fill-opacity="1" stroke="#d1994a" stroke-opacity="1" data-original-stroke-color="#33ccccff" stroke-width="12" data-original-stroke-width="22"/>
		<path style="stroke-linejoin: round; stroke-miterlimit: 10;" d="M345.184,128.836&#10;&#9;&#9;&#9;c-33.42,3.088-59.588,31.202-59.588,65.429v0c0,24.562,13.698,47.073,35.513,58.36l26.183,13.548&#10;&#9;&#9;&#9;c7.6,3.932,14.359,9.311,19.896,15.835l6.062,7.141c12.485,14.707,30.802,23.184,50.094,23.184h69.566" fill="none" fill-opacity="1" stroke="#d1994a" stroke-opacity="1" data-original-stroke-color="#33ccccff" stroke-width="12" data-original-stroke-width="22"/>
		<path style="stroke-linejoin: round; stroke-miterlimit: 10;" d="M429.19,429.291&#10;&#9;&#9;&#9;c-7.367-11.347-15.362-23.661-22.55-34.734c-12.663-19.509-38.425-25.613-58.619-13.798c-14.413,8.432-32.389,7.833-46.208-1.542&#10;&#9;&#9;&#9;l-12.761-8.657" fill="none" fill-opacity="1" stroke="#d1994a" stroke-opacity="1" data-original-stroke-color="#33ccccff" stroke-width="12" data-original-stroke-width="22"/>
		<path style="stroke-linejoin: round; stroke-miterlimit: 10;" d="M152.387,337.795&#10;&#9;&#9;&#9;c-1.764,1.005-3.502,2.075-5.211,3.21h0c-6.761,4.492-14.347,7.595-22.318,9.131h0c-28.845,5.557-49.69,30.801-49.69,60.177&#10;&#9;&#9;&#9;v10.979" fill="none" fill-opacity="1" stroke="#d1994a" stroke-opacity="1" data-original-stroke-color="#33ccccff" stroke-width="12" data-original-stroke-width="22"/>
		<g>
			<g>
				
					<circle style="stroke-linejoin: round; stroke-miterlimit: 10;" cx="114.317" cy="83.803" r="25.851" fill="none" fill-opacity="1" stroke="#d1994a" stroke-opacity="1" data-original-stroke-color="#33ccccff" stroke-width="12" data-original-stroke-width="22"/>
			</g>
		</g>
		<g>
			<g>
				
					<circle style="stroke-linejoin: round; stroke-miterlimit: 10;" cx="418.784" cy="128.555" r="25.851" fill="none" fill-opacity="1" stroke="#d1994a" stroke-opacity="1" data-original-stroke-color="#33ccccff" stroke-width="12" data-original-stroke-width="22"/>
			</g>
		</g>
		<g>
			<g>
				
					<circle style="stroke-linejoin: round; stroke-miterlimit: 10;" cx="225.566" cy="333.858" r="25.851" fill="none" fill-opacity="1" stroke="#d1994a" stroke-opacity="1" data-original-stroke-color="#33ccccff" stroke-width="12" data-original-stroke-width="22"/>
			</g>
		</g>
	</g>
	<g>
		<path style="stroke-linejoin: round; stroke-miterlimit: 10;" d="M483.235,164.233&#10;&#9;&#9;&#9;C494.692,192.576,501,223.551,501,256c0,135.31-109.69,245-245,245S11,391.31,11,256c0-49.666,14.778-95.88,40.178-134.485" fill="none" fill-opacity="1" stroke="#000000" stroke-opacity="1" data-original-stroke-color="#000000ff" stroke-width="12" data-original-stroke-width="22"/>
		<path style="stroke-linejoin: round; stroke-miterlimit: 10;" d="M163.359,29.121&#10;&#9;&#9;&#9;C191.938,17.439,223.217,11,256,11c53.876,0,103.69,17.39,144.135,46.863" fill="none" fill-opacity="1" stroke="#000000" stroke-opacity="1" data-original-stroke-color="#000000ff" stroke-width="12" data-original-stroke-width="22"/>
		<path style="stroke-linecap: round; stroke-linejoin: round; stroke-miterlimit: 10;" d="&#10;&#9;&#9;&#9;M169.326,131.493l-55.009,63.452l-55.009-63.452c-25.023-28.863-23.482-72.158,3.529-99.169l0,0&#10;&#9;&#9;&#9;c28.431-28.431,74.528-28.431,102.959,0l0,0C192.808,59.335,194.349,102.63,169.326,131.493z" fill="none" fill-opacity="1" stroke="#000000" stroke-opacity="1" data-original-stroke-color="#000000ff" stroke-width="12" data-original-stroke-width="22"/>
		<path style="stroke-linecap: round; stroke-linejoin: round; stroke-miterlimit: 10;" d="&#10;&#9;&#9;&#9;M473.793,176.245l-55.009,63.452l-55.009-63.452c-25.023-28.863-23.482-72.158,3.529-99.169l0,0&#10;&#9;&#9;&#9;c28.431-28.431,74.528-28.431,102.959,0l0,0C497.275,104.086,498.816,147.381,473.793,176.245z" fill="none" fill-opacity="1" stroke="#000000" stroke-opacity="1" data-original-stroke-color="#000000ff" stroke-width="12" data-original-stroke-width="22"/>
		<path style="stroke-linecap: round; stroke-linejoin: round; stroke-miterlimit: 10;" d="&#10;&#9;&#9;&#9;M280.575,381.548L225.566,445l-55.009-63.452c-25.023-28.863-23.482-72.158,3.529-99.169l0,0&#10;&#9;&#9;&#9;c28.431-28.431,74.528-28.431,102.959,0l0,0C304.057,309.39,305.598,352.685,280.575,381.548z" fill="none" fill-opacity="1" stroke="#000000" stroke-opacity="1" data-original-stroke-color="#000000ff" stroke-width="12" data-original-stroke-width="22"/>
	</g>
</g><g>
</g><g>
</g><g>
</g><g>
</g><g>
</g><g>
</g><g>
</g><g>
</g><g>
</g><g>
</g><g>
</g><g>
</g><g>
</g><g>
</g><g>
</g></g></svg>