<svg version="1.1" id="Capa_1" xmlns="http://www.w3.org/2000/svg" xmlns:xlink="http://www.w3.org/1999/xlink" x="0px" y="0px" viewBox="0 0 512 512" style="enable-background:new 0 0 512 512;" xml:space="preserve" width="300" height="300" xmlns:svgjs="http://svgjs.dev/svgjs"><g width="100%" height="100%" transform="matrix(1,0,0,1,0,0)"><g>
	<g>
		<g>
			<path style="stroke-linecap: round; stroke-linejoin: round; stroke-miterlimit: 10;" d="&#10;&#9;&#9;&#9;&#9;M33.569,466.45v-71.122c0-5.523,4.477-10,10-10h50.679c5.523,0,10,4.477,10,10v71.562" fill="none" fill-opacity="1" stroke="#000000" stroke-opacity="1" data-original-stroke-color="#000000ff" stroke-width="12" data-original-stroke-width="22"/>
			<path style="stroke-linecap: round; stroke-linejoin: round; stroke-miterlimit: 10;" d="&#10;&#9;&#9;&#9;&#9;M158.297,466.89V323.06c0-5.523,4.477-10,10-10h50.679c5.523,0,10,4.477,10,10v142.069" fill="none" fill-opacity="1" stroke="#000000" stroke-opacity="1" data-original-stroke-color="#000000ff" stroke-width="12" data-original-stroke-width="22"/>
			<path style="stroke-linecap: round; stroke-linejoin: round; stroke-miterlimit: 10;" d="&#10;&#9;&#9;&#9;&#9;M283.024,465.789V250.792c0-5.523,4.477-10,10-10h50.679c5.523,0,10,4.477,10,10v214.557" fill="none" fill-opacity="1" stroke="#000000" stroke-opacity="1" data-original-stroke-color="#000000ff" stroke-width="12" data-original-stroke-width="22"/>
			<path style="stroke-linecap: round; stroke-linejoin: round; stroke-miterlimit: 10;" d="&#10;&#9;&#9;&#9;&#9;M407.752,465.789V178.523c0-5.523,4.477-10,10-10h50.679c5.523,0,10,4.477,10,10v287.266" fill="none" fill-opacity="1" stroke="#000000" stroke-opacity="1" data-original-stroke-color="#000000ff" stroke-width="12" data-original-stroke-width="22"/>
		</g>
		
			<line style="stroke-linecap: round; stroke-linejoin: round; stroke-miterlimit: 10;" x1="11" y1="469.734" x2="501" y2="469.734" fill="none" fill-opacity="1" stroke="#000000" stroke-opacity="1" data-original-stroke-color="#000000ff" stroke-width="12" data-original-stroke-width="22"/>
	</g>
	<g>
		
			<polyline style="stroke-linecap: round; stroke-linejoin: round; stroke-miterlimit: 10;" points="&#10;&#9;&#9;&#9;438.286,42.266 478.431,42.266 478.431,81.018 &#9;&#9;" fill="none" fill-opacity="1" stroke="#d1994a" stroke-opacity="1" data-original-stroke-color="#33ccccff" stroke-width="12" data-original-stroke-width="22"/>
		<path style="stroke-linecap: round; stroke-linejoin: round; stroke-miterlimit: 10;" d="&#10;&#9;&#9;&#9;M33.569,287.669c155.959-30.441,308.965-107.391,420.348-220.721l21.644-22.022" fill="none" fill-opacity="1" stroke="#d1994a" stroke-opacity="1" data-original-stroke-color="#33ccccff" stroke-width="12" data-original-stroke-width="22"/>
	</g>
</g><g>
</g><g>
</g><g>
</g><g>
</g><g>
</g><g>
</g><g>
</g><g>
</g><g>
</g><g>
</g><g>
</g><g>
</g><g>
</g><g>
</g><g>
</g></g></svg>