<svg xmlns="http://www.w3.org/2000/svg" version="1.1" xmlns:xlink="http://www.w3.org/1999/xlink" width="512" height="512" x="0" y="0" viewBox="0 0 512.02 512.02" style="enable-background:new 0 0 512 512" xml:space="preserve" class=""><g><path d="m316.225 64.735-37.551-37.543-17.484 17.484c-9.656 9.656-9.659 25.309-.003 34.965M427.35 309.098l-36.654-36.089M281.921 370.626l42.26 41.64M358.373 445.956l39.451 38.872L501.02 381.632l-39.465-38.857" style="stroke-width: 12; stroke-linejoin: round; stroke-miterlimit: 10;" fill="none" stroke="#000000" stroke-width="12" stroke-linejoin="round" stroke-miterlimit="10" data-original="#000000" class=""></path><path d="m193.334 221.865-27.554-27.554c-9.656-9.656-25.312-9.656-34.968 0h0c-9.656 9.656-9.656 25.312 0 34.968l27.554 27.554c9.656 9.656 25.312 9.656 34.968 0h0c9.656-9.656 9.656-25.312 0-34.968zM228.346 186.852l-46.279-46.279c-9.656-9.656-25.312-9.656-34.968 0h0c-9.656 9.656-9.656 25.312 0 34.968l46.279 46.279c9.656 9.656 25.312 9.656 34.968 0h0c9.657-9.656 9.657-25.312 0-34.968zM263.359 151.84l-58.38-58.38c-9.656-9.656-25.312-9.656-34.968 0h0c-9.656 9.656-9.656 25.312 0 34.968l58.38 58.38c9.656 9.656 25.312 9.656 34.968 0h0c9.656-9.656 9.656-25.312 0-34.968zM298.372 116.827l-58.38-58.38c-9.656-9.656-25.312-9.656-34.968 0h0c-9.656 9.656-9.656 25.312 0 34.968l58.38 58.38c9.656 9.656 25.312 9.656 34.968 0h0c9.656-9.656 9.656-25.312 0-34.968z" style="stroke-width: 12; stroke-linecap: round; stroke-linejoin: round; stroke-miterlimit: 10;" fill="none" stroke="#000000" stroke-width="12" stroke-linecap="round" stroke-linejoin="round" stroke-miterlimit="10" data-original="#000000" class=""></path><path d="m281.288 98.64 30.188-30.188c9.715-9.715 25.466-9.715 35.181 0 9.715 9.715 9.715 25.466 0 35.181l-48.224 48.224M49.945 342.078 11 381.623 114.197 484.82l38.938-39.552M186.81 411.061l38.318-38.923c28.845 10.176 60.971 2.887 82.599-18.741L410.833 250.29M136.762 236.26l-11.845 29.694-41.289 41.924" style="stroke-width: 12; stroke-linejoin: round; stroke-miterlimit: 10;" fill="none" stroke="#000000" stroke-width="12" stroke-linejoin="round" stroke-miterlimit="10" data-original="#000000" class=""></path><path d="m388.18 272.943 36.427-36.427c9.715-9.715 9.715-25.466 0-35.181-9.715-9.715-25.466-9.715-35.181 0l-2.819 2.819" style="stroke-width: 12; stroke-linejoin: round; stroke-miterlimit: 10;" fill="none" stroke="#000000" stroke-width="12" stroke-linejoin="round" stroke-miterlimit="10" data-original="#000000" class=""></path><path d="m366.398 224.37 35.643-35.643c9.715-9.715 9.715-25.466 0-35.181h0c-9.715-9.715-25.466-9.715-35.181 0l-15.431 15.431" style="stroke-width: 12; stroke-linecap: round; stroke-linejoin: round; stroke-miterlimit: 10;" fill="none" stroke="#000000" stroke-width="12" stroke-linecap="round" stroke-linejoin="round" stroke-miterlimit="10" data-original="#000000" class=""></path><path d="m331.279 189.251 50.498-50.498c9.715-9.715 9.715-25.466 0-35.181h0c-9.715-9.715-25.466-9.715-35.181 0" style="stroke-width: 12; stroke-linecap: round; stroke-linejoin: round; stroke-miterlimit: 10;" fill="none" stroke="#000000" stroke-width="12" stroke-linecap="round" stroke-linejoin="round" stroke-miterlimit="10" data-original="#000000" class=""></path><path d="M48.88 341.013 153.627 445.76c9.373 9.373 24.568 9.373 33.941 0 9.373-9.373 9.373-24.569 0-33.941L82.821 307.072c-9.373-9.373-24.569-9.373-33.941 0-9.372 9.373-9.372 24.569 0 33.941zM462.224 342.106 357.477 446.852c-9.373 9.373-24.568 9.373-33.941 0-9.373-9.373-9.373-24.569 0-33.941l104.747-104.747c9.373-9.373 24.569-9.373 33.941 0 9.373 9.373 9.373 24.569 0 33.942z" style="stroke-width: 12; stroke-linejoin: round; stroke-miterlimit: 10;" fill="none" stroke="#d1994a" stroke-width="12" stroke-linejoin="round" stroke-miterlimit="10" data-original="#33cccc" opacity="1"></path></g></svg>