<svg version="1.1" id="Layer_1" xmlns="http://www.w3.org/2000/svg" xmlns:xlink="http://www.w3.org/1999/xlink" x="0px" y="0px" viewBox="0 0 512 512" style="enable-background:new 0 0 512 512;" xml:space="preserve" width="300" height="300" xmlns:svgjs="http://svgjs.dev/svgjs"><g width="100%" height="100%" transform="matrix(1,0,0,1,0,0)"><g>
	<g>
		<g>
			
				<polyline style="stroke-linecap: round; stroke-linejoin: round; stroke-miterlimit: 10;" points="&#10;&#9;&#9;&#9;&#9;328.952,397.592 328.952,501 252.177,470.759 175.401,501 175.401,396.829 &#9;&#9;&#9;" fill="none" fill-opacity="1" stroke="#000000" stroke-opacity="1" data-original-stroke-color="#000000ff" stroke-width="12" data-original-stroke-width="22"/>
			<path style="stroke-linecap: round; stroke-linejoin: round; stroke-miterlimit: 10;" d="&#10;&#9;&#9;&#9;&#9;M173.861,319.159c8.029-35.676,40.044-62.335,78.316-62.335h0c38.707,0,71.013,27.268,78.58,63.554" fill="none" fill-opacity="1" stroke="#000000" stroke-opacity="1" data-original-stroke-color="#000000ff" stroke-width="12" data-original-stroke-width="22"/>
			
				<ellipse style="stroke-linecap: round; stroke-linejoin: round; stroke-miterlimit: 10;" cx="252.177" cy="206.91" rx="50.158" ry="49.914" fill="none" fill-opacity="1" stroke="#000000" stroke-opacity="1" data-original-stroke-color="#000000ff" stroke-width="12" data-original-stroke-width="22"/>
			<g>
				<g>
					<g>
						
							<line style="stroke-linecap: round; stroke-linejoin: round; stroke-miterlimit: 10;" x1="453.806" y1="11" x2="453.806" y2="18.767" fill="none" fill-opacity="1" stroke="#d1994a" stroke-opacity="1" data-original-stroke-color="#33ccccff" stroke-width="12" data-original-stroke-width="22"/>
						
							<line style="stroke-linecap: round; stroke-linejoin: round; stroke-miterlimit: 10;" x1="453.806" y1="70.306" x2="453.806" y2="78.072" fill="none" fill-opacity="1" stroke="#d1994a" stroke-opacity="1" data-original-stroke-color="#33ccccff" stroke-width="12" data-original-stroke-width="22"/>
					</g>
				</g>
				<g>
					<g>
						
							<line style="stroke-linecap: round; stroke-linejoin: round; stroke-miterlimit: 10;" x1="487.506" y1="44.536" x2="479.701" y2="44.536" fill="none" fill-opacity="1" stroke="#d1994a" stroke-opacity="1" data-original-stroke-color="#33ccccff" stroke-width="12" data-original-stroke-width="22"/>
						
							<line style="stroke-linecap: round; stroke-linejoin: round; stroke-miterlimit: 10;" x1="427.91" y1="44.536" x2="420.106" y2="44.536" fill="none" fill-opacity="1" stroke="#d1994a" stroke-opacity="1" data-original-stroke-color="#33ccccff" stroke-width="12" data-original-stroke-width="22"/>
					</g>
				</g>
			</g>
			<path style="stroke-linecap: round; stroke-linejoin: round; stroke-miterlimit: 10;" d="&#10;&#9;&#9;&#9;&#9;M453.806,217.229l-10.988,18.793c-10.615,18.155-16.168,38.8-16.086,59.805l0.085,21.748l-18.856,10.714&#10;&#9;&#9;&#9;&#9;c-18.412,10.462-33.669,25.645-44.183,43.968l-10.766,18.764l-21.853-0.084c-21.107-0.081-41.854,5.445-60.098,16.008&#10;&#9;&#9;&#9;&#9;l-18.885,10.934l-18.885-10.934c-18.244-10.563-38.99-16.089-60.097-16.008l-21.854,0.084l-10.766-18.764&#10;&#9;&#9;&#9;&#9;c-10.513-18.323-25.77-33.506-44.182-43.968l-18.856-10.714l0.085-21.747c0.082-21.005-5.471-41.65-16.086-59.806l-10.987-18.793&#10;&#9;&#9;&#9;&#9;l10.988-18.793c10.615-18.155,16.168-38.8,16.086-59.805l-0.085-21.748l18.856-10.714c18.412-10.462,33.669-25.645,44.183-43.968&#10;&#9;&#9;&#9;&#9;l10.766-18.764l21.853,0.084c21.107,0.081,41.854-5.445,60.098-16.008l18.885-10.934l18.885,10.934&#10;&#9;&#9;&#9;&#9;c18.244,10.563,38.99,16.089,60.097,16.008l21.854-0.084l10.766,18.764c10.513,18.323,25.77,33.506,44.182,43.968l18.856,10.714&#10;&#9;&#9;&#9;&#9;l-0.085,21.747c-0.082,21.005,5.471,41.65,16.086,59.806L453.806,217.229z" fill="none" fill-opacity="1" stroke="#000000" stroke-opacity="1" data-original-stroke-color="#000000ff" stroke-width="12" data-original-stroke-width="22"/>
			
				<ellipse style="stroke-linecap: round; stroke-linejoin: round; stroke-miterlimit: 10;" cx="252.177" cy="217.229" rx="132.891" ry="132.245" fill="none" fill-opacity="1" stroke="#000000" stroke-opacity="1" data-original-stroke-color="#000000ff" stroke-width="12" data-original-stroke-width="22"/>
		</g>
	</g>
	<g>
		
			<line style="stroke-linecap: round; stroke-linejoin: round; stroke-miterlimit: 10;" x1="46.782" y1="352.32" x2="46.782" y2="396.896" fill="none" fill-opacity="1" stroke="#d1994a" stroke-opacity="1" data-original-stroke-color="#33ccccff" stroke-width="12" data-original-stroke-width="22"/>
		
			<line style="stroke-linecap: round; stroke-linejoin: round; stroke-miterlimit: 10;" x1="69.071" y1="374.608" x2="24.494" y2="374.608" fill="none" fill-opacity="1" stroke="#d1994a" stroke-opacity="1" data-original-stroke-color="#33ccccff" stroke-width="12" data-original-stroke-width="22"/>
	</g>
</g><g>
</g><g>
</g><g>
</g><g>
</g><g>
</g><g>
</g><g>
</g><g>
</g><g>
</g><g>
</g><g>
</g><g>
</g><g>
</g><g>
</g><g>
</g></g></svg>