<svg height="300" viewBox="0 0 48 48" width="300" xmlns="http://www.w3.org/2000/svg" version="1.1" xmlns:xlink="http://www.w3.org/1999/xlink" xmlns:svgjs="http://svgjs.dev/svgjs"><g width="100%" height="100%" transform="matrix(1,0,0,1,0,0)"><g id="_2-Investment" fill="none" stroke-linejoin="round" stroke-width="1" data-name="2-Investment"><path d="m14 35v2a10 10 0 0 0 20 0v-2" stroke="#d1994a" fill="none" fill-opacity="1" stroke-opacity="1" data-original-stroke-color="#2c8eebff" stroke-width="1" data-original-stroke-width="2"/><path d="m27 35v-1a1 1 0 0 0 -1-1h-4a1 1 0 0 0 -1 1v2a1 1 0 0 0 1 1h2" stroke="#000000" fill="none" fill-opacity="1" stroke-opacity="1" data-original-stroke-color="#000000ff" stroke-width="1" data-original-stroke-width="2"/><path d="m21 39v1a1 1 0 0 0 1 1h4a1 1 0 0 0 1-1v-2a1 1 0 0 0 -1-1h-2" stroke="#000000" fill="none" fill-opacity="1" stroke-opacity="1" data-original-stroke-color="#000000ff" stroke-width="1" data-original-stroke-width="2"/><path d="m24 33v-3" stroke="#000000" fill="none" fill-opacity="1" stroke-opacity="1" data-original-stroke-color="#000000ff" stroke-width="1" data-original-stroke-width="2"/><path d="m24 44v-3" stroke="#000000" fill="none" fill-opacity="1" stroke-opacity="1" data-original-stroke-color="#000000ff" stroke-width="1" data-original-stroke-width="2"/><path d="m37 12a10 10 0 1 1 -10 10v-10s4-1 4-4v-7" stroke="#000000" fill="none" fill-opacity="1" stroke-opacity="1" data-original-stroke-color="#000000ff" stroke-width="1" data-original-stroke-width="2"/><path d="m40 20v-1a1 1 0 0 0 -1-1h-4a1 1 0 0 0 -1 1v2a1 1 0 0 0 1 1h2" stroke="#d1994a" fill="none" fill-opacity="1" stroke-opacity="1" data-original-stroke-color="#2c8eebff" stroke-width="1" data-original-stroke-width="2"/><path d="m34 24v1a1 1 0 0 0 1 1h4a1 1 0 0 0 1-1v-2a1 1 0 0 0 -1-1h-2" stroke="#d1994a" fill="none" fill-opacity="1" stroke-opacity="1" data-original-stroke-color="#2c8eebff" stroke-width="1" data-original-stroke-width="2"/><path d="m37 18v-3" stroke="#d1994a" fill="none" fill-opacity="1" stroke-opacity="1" data-original-stroke-color="#2c8eebff" stroke-width="1" data-original-stroke-width="2"/><path d="m37 29v-3" stroke="#d1994a" fill="none" fill-opacity="1" stroke-opacity="1" data-original-stroke-color="#2c8eebff" stroke-width="1" data-original-stroke-width="2"/><path d="m11 12a10 10 0 1 0 10 10v-10s-4-1-4-4v-7" stroke="#000000" fill="none" fill-opacity="1" stroke-opacity="1" data-original-stroke-color="#000000ff" stroke-width="1" data-original-stroke-width="2"/><g stroke="#2c8eeb"><path d="m14 20v-1a1 1 0 0 0 -1-1h-4a1 1 0 0 0 -1 1v2a1 1 0 0 0 1 1h2" fill="none" fill-opacity="1" stroke="#d1994a" stroke-opacity="1" data-original-stroke-color="#2c8eebff" stroke-width="1" data-original-stroke-width="2"/><path d="m8 24v1a1 1 0 0 0 1 1h4a1 1 0 0 0 1-1v-2a1 1 0 0 0 -1-1h-2" fill="none" fill-opacity="1" stroke="#d1994a" stroke-opacity="1" data-original-stroke-color="#2c8eebff" stroke-width="1" data-original-stroke-width="2"/><path d="m11 18v-3" fill="none" fill-opacity="1" stroke="#d1994a" stroke-opacity="1" data-original-stroke-color="#2c8eebff" stroke-width="1" data-original-stroke-width="2"/><path d="m11 29v-3" fill="none" fill-opacity="1" stroke="#d1994a" stroke-opacity="1" data-original-stroke-color="#2c8eebff" stroke-width="1" data-original-stroke-width="2"/><path d="m13 5 4-4 4 4" fill="none" fill-opacity="1" stroke="#d1994a" stroke-opacity="1" data-original-stroke-color="#2c8eebff" stroke-width="1" data-original-stroke-width="2"/><path d="m27 5 4-4 4 4" fill="none" fill-opacity="1" stroke="#d1994a" stroke-opacity="1" data-original-stroke-color="#2c8eebff" stroke-width="1" data-original-stroke-width="2"/></g></g></g></svg>