<svg version="1.1" id="Capa_1" xmlns="http://www.w3.org/2000/svg" xmlns:xlink="http://www.w3.org/1999/xlink" x="0px" y="0px" viewBox="0 0 512.001 512.001" style="enable-background:new 0 0 512.001 512.001;" xml:space="preserve" width="300" height="300" xmlns:svgjs="http://svgjs.dev/svgjs"><g width="100%" height="100%" transform="matrix(1,0,0,1,0,0)"><g>
	<g>
		
			<polyline style="fill-rule: evenodd; clip-rule: evenodd; stroke-linecap: round; stroke-linejoin: round; stroke-miterlimit: 2.6131;" points="&#10;&#9;&#9;&#9;99.583,376.141 99.583,442.606 258.503,442.606 &#9;&#9;" fill="none" fill-opacity="1" stroke="#d1994a" stroke-opacity="1" data-original-stroke-color="#33ccccff" stroke-width="12" data-original-stroke-width="22"/>
		
			<polyline style="fill-rule: evenodd; clip-rule: evenodd; stroke-linecap: round; stroke-linejoin: round; stroke-miterlimit: 2.6131;" points="&#10;&#9;&#9;&#9;117.261,388.818 99.583,371.141 81.906,388.818 &#9;&#9;" fill="none" fill-opacity="1" stroke="#d1994a" stroke-opacity="1" data-original-stroke-color="#33ccccff" stroke-width="12" data-original-stroke-width="22"/>
		
			<polyline style="fill-rule: evenodd; clip-rule: evenodd; stroke-linecap: round; stroke-linejoin: round; stroke-miterlimit: 2.6131;" points="&#10;&#9;&#9;&#9;432.418,247.161 432.418,134.535 386,134.535 &#9;&#9;" fill="none" fill-opacity="1" stroke="#d1994a" stroke-opacity="1" data-original-stroke-color="#33ccccff" stroke-width="12" data-original-stroke-width="22"/>
		
			<polyline style="fill-rule: evenodd; clip-rule: evenodd; stroke-linecap: round; stroke-linejoin: round; stroke-miterlimit: 2.6131;" points="&#10;&#9;&#9;&#9;414.74,238.323 432.418,256 450.095,238.323 &#9;&#9;" fill="none" fill-opacity="1" stroke="#d1994a" stroke-opacity="1" data-original-stroke-color="#33ccccff" stroke-width="12" data-original-stroke-width="22"/>
	</g>
	<g>
		
			<path style="fill-rule: evenodd; clip-rule: evenodd; stroke-linecap: round; stroke-linejoin: round; stroke-miterlimit: 22.9256;" d="&#10;&#9;&#9;&#9;M429.845,327.383c8.256,2.821,15.886,6.991,22.628,12.247l23.528-10.308l25,43.301l-19.761,14.537&#10;&#9;&#9;&#9;c0.807,4.491,1.229,9.116,1.229,13.839c0,4.707-0.418,9.315-1.22,13.792L501,429.323l-25,43.301l-23.482-10.288&#10;&#9;&#9;&#9;c-6.753,5.273-14.399,9.455-22.673,12.282l-2.932,26.383h-50l-3.182-28.635c-6.845-2.974-13.178-6.901-18.831-11.617&#10;&#9;&#9;&#9;l-27.105,11.875l-25-43.301l24.771-18.223c-0.429-3.306-0.652-6.676-0.652-10.1c0-3.44,0.226-6.827,0.659-10.149l-24.778-18.228&#10;&#9;&#9;&#9;l25-43.301l27.148,11.894c5.642-4.701,11.962-8.615,18.789-11.581L376.913,301h50L429.845,327.383z" fill="none" fill-opacity="1" stroke="#000000" stroke-opacity="1" data-original-stroke-color="#000000ff" stroke-width="12" data-original-stroke-width="22"/>
		
			<path style="fill-rule: evenodd; clip-rule: evenodd; stroke-linecap: round; stroke-linejoin: round; stroke-miterlimit: 2.6131;" d="&#10;&#9;&#9;&#9;M205.092,38.299c17.271,3.631,33.373,10.433,47.676,19.762l21.466-17.172l36.853,36.853L293.93,99.215&#10;&#9;&#9;&#9;c9.332,14.301,16.136,30.404,19.769,47.676L341,149.924v52.118l-27.298,3.049c-3.631,17.272-10.434,33.374-19.763,47.678&#10;&#9;&#9;&#9;l17.172,21.465l-36.853,36.853l-21.469-17.155c-14.302,9.334-30.408,16.136-47.68,19.771L202.076,341h-52.118l-3.049-27.299&#10;&#9;&#9;&#9;c-17.271-3.631-33.374-10.433-47.677-19.762l-21.466,17.172l-36.853-36.853l17.158-21.473&#10;&#9;&#9;&#9;c-9.332-14.301-16.135-30.404-19.768-47.675L11,202.076v-52.118l27.299-3.049c3.631-17.271,10.434-33.373,19.762-47.677&#10;&#9;&#9;&#9;L40.89,77.765l36.853-36.853l21.47,17.155c14.302-9.334,30.408-16.136,47.68-19.77L149.925,11h52.118L205.092,38.299z" fill="none" fill-opacity="1" stroke="#000000" stroke-opacity="1" data-original-stroke-color="#000000ff" stroke-width="12" data-original-stroke-width="22"/>
		
			<ellipse transform="matrix(0.7595 -0.6506 0.6506 0.7595 -163.5631 359.6321)" style="fill-rule: evenodd; clip-rule: evenodd; stroke-linecap: round; stroke-linejoin: round; stroke-miterlimit: 2.6131;" cx="404.544" cy="401" rx="29.809" ry="29.809" fill="none" fill-opacity="1" stroke="#000000" stroke-opacity="1" data-original-stroke-color="#000000ff" stroke-width="12" data-original-stroke-width="22"/>
		
			<circle style="fill-rule: evenodd; clip-rule: evenodd; stroke-linecap: round; stroke-linejoin: round; stroke-miterlimit: 2.6131;" cx="176" cy="176" r="66.975" fill="none" fill-opacity="1" stroke="#000000" stroke-opacity="1" data-original-stroke-color="#000000ff" stroke-width="12" data-original-stroke-width="22"/>
	</g>
</g><g>
</g><g>
</g><g>
</g><g>
</g><g>
</g><g>
</g><g>
</g><g>
</g><g>
</g><g>
</g><g>
</g><g>
</g><g>
</g><g>
</g><g>
</g></g></svg>