<svg version="1.1" id="Capa_1" xmlns="http://www.w3.org/2000/svg" xmlns:xlink="http://www.w3.org/1999/xlink" x="0px" y="0px" viewBox="0 0 512 512" style="enable-background:new 0 0 512 512;" xml:space="preserve" width="300" height="300" xmlns:svgjs="http://svgjs.dev/svgjs"><g width="100%" height="100%" transform="matrix(1,0,0,1,0,0)"><g>
	<g>
		<path style="stroke-linecap: round; stroke-linejoin: round; stroke-miterlimit: 10;" d="&#10;&#9;&#9;&#9;M284.536,445.236c-8.873,5.861-18.161,11.224-27.833,16.04l-41.204,20.514l-41.204-20.514&#10;&#9;&#9;&#9;C84.849,416.744,28.306,325.43,28.306,225.511V56.083l48.203-18.86c89.362-34.964,188.619-34.964,277.982,0l48.203,18.86v169.428&#10;&#9;&#9;&#9;c0,22.632-2.901,44.822-8.428,66.127" fill="none" fill-opacity="1" stroke="#000000" stroke-opacity="1" data-original-stroke-color="#000000ff" stroke-width="12" data-original-stroke-width="22"/>
		<path style="stroke-linecap: round; stroke-linejoin: round; stroke-miterlimit: 10;" d="&#10;&#9;&#9;&#9;M273.208,400.629c-11.094,8.48-23.02,15.924-35.643,22.208l-22.066,10.986l-22.066-10.986&#10;&#9;&#9;&#9;c-36.732-18.287-67.566-46.393-89.167-81.279c-21.602-34.886-33.02-75.014-33.02-116.047V85.391l20.909-8.181&#10;&#9;&#9;&#9;c39.466-15.441,80.965-23.271,123.345-23.271s83.879,7.83,123.345,23.271l20.909,8.181v140.119&#10;&#9;&#9;&#9;c0,23.291-3.679,46.291-10.811,68.206" fill="none" fill-opacity="1" stroke="#000000" stroke-opacity="1" data-original-stroke-color="#000000ff" stroke-width="12" data-original-stroke-width="22"/>
	</g>
	<g>
		<path style="stroke-linecap: round; stroke-linejoin: round; stroke-miterlimit: 10;" d="&#10;&#9;&#9;&#9;M309.501,236.678v-24.245l-68.073-40.411v-20.84c0-19.859-9.675-38.474-25.929-49.885l0,0l-0.024,0.017&#10;&#9;&#9;&#9;c-16.381,11.394-26.149,30.084-26.149,50.039v20.801l-67.829,40.28v24.245l67.829-11.299l5.737,29.123l-17.57,15.032l0.046,37.869&#10;&#9;&#9;&#9;l37.96-19.427l38.006,19.427v-37.869l-17.814-15.217l5.737-28.938L309.501,236.678z" fill="none" fill-opacity="1" stroke="#d1994a" stroke-opacity="1" data-original-stroke-color="#33ccccff" stroke-width="12" data-original-stroke-width="22"/>
		
			<circle style="stroke-linecap: round; stroke-linejoin: round; stroke-miterlimit: 10;" cx="379.013" cy="396.319" r="104.681" fill="none" fill-opacity="1" stroke="#d1994a" stroke-opacity="1" data-original-stroke-color="#33ccccff" stroke-width="12" data-original-stroke-width="22"/>
	</g>
	
		<polyline style="stroke-linecap: round; stroke-linejoin: round; stroke-miterlimit: 10;" points="&#10;&#9;&#9;334.954,404.003 365.05,432.769 427.139,366.134 &#9;" fill="none" fill-opacity="1" stroke="#000000" stroke-opacity="1" data-original-stroke-color="#000000ff" stroke-width="12" data-original-stroke-width="22"/>
</g><g>
</g><g>
</g><g>
</g><g>
</g><g>
</g><g>
</g><g>
</g><g>
</g><g>
</g><g>
</g><g>
</g><g>
</g><g>
</g><g>
</g><g>
</g></g></svg>